<svg width="19" height="16" viewBox="0 0 19 16" fill="none" xmlns="http://www.w3.org/2000/svg">
<g clip-path="url(#clip0_46_263)">
<path d="M5.90079 10.3361C5.80575 10.3366 5.71154 10.3198 5.62356 10.2866C5.53557 10.2534 5.45554 10.2045 5.38807 10.1427L1.05515 6.14273C0.919168 6.01719 0.842773 5.84693 0.842773 5.6694C0.842773 5.49186 0.919168 5.3216 1.05515 5.19606C1.19114 5.07053 1.37557 5 1.56788 5C1.76019 5 1.94462 5.07053 2.08061 5.19606L5.90079 8.72941L9.72098 5.20273C9.85913 5.09351 10.0368 5.03644 10.2186 5.04292C10.4003 5.0494 10.5727 5.11896 10.7013 5.23769C10.83 5.35642 10.9053 5.51558 10.9123 5.68336C10.9193 5.85115 10.8575 6.0152 10.7392 6.14273L6.4063 10.1427C6.27179 10.2659 6.09024 10.3353 5.90079 10.3361Z" fill="#100D22"/>
</g>
<defs>
<clipPath id="clip0_46_263">
<rect width="17.3317" height="16" fill="white" transform="translate(0.842773)"/>
</clipPath>
</defs>
</svg>
