<svg width="19" height="16" viewBox="0 0 19 16" fill="none" xmlns="http://www.w3.org/2000/svg">
<path d="M9.41056 10.6666C9.31552 10.6671 9.22131 10.6503 9.13332 10.6172C9.04534 10.584 8.96531 10.5351 8.89783 10.4733L4.56492 6.4733C4.42893 6.34776 4.35254 6.1775 4.35254 5.99996C4.35254 5.82243 4.42893 5.65216 4.56492 5.52663C4.7009 5.40109 4.88534 5.33057 5.07765 5.33057C5.26996 5.33057 5.45439 5.40109 5.59037 5.52663L9.41056 9.05997L13.2307 5.53329C13.3689 5.42408 13.5466 5.36701 13.7283 5.37349C13.9101 5.37997 14.0825 5.44952 14.2111 5.56825C14.3397 5.68698 14.4151 5.84614 14.4221 6.01393C14.4291 6.18171 14.3673 6.34576 14.249 6.4733L9.91607 10.4733C9.78156 10.5965 9.60001 10.6659 9.41056 10.6666Z" fill="#100D22"/>
</svg>
