<svg width="20" height="22" viewBox="0 0 20 22" fill="none" xmlns="http://www.w3.org/2000/svg">
<g clip-path="url(#clip0_1_1616)">
<path d="M4.16639 0.173179C4.16601 -0.0215309 4.23382 -0.210228 4.35806 -0.360155C4.42802 -0.444537 4.51393 -0.514288 4.61089 -0.565415C4.70785 -0.616541 4.81393 -0.648038 4.92308 -0.658102C5.03223 -0.668165 5.14229 -0.656596 5.24696 -0.624059C5.35163 -0.591522 5.44885 -0.538656 5.53306 -0.468488L9.99972 3.26485L14.4747 -0.335154C14.56 -0.404376 14.658 -0.456069 14.7633 -0.487262C14.8686 -0.518455 14.979 -0.528533 15.0882 -0.516917C15.1974 -0.505301 15.3032 -0.47222 15.3996 -0.419576C15.4959 -0.366931 15.581 -0.29576 15.6497 -0.210154C15.7256 -0.123933 15.7828 -0.0229609 15.8178 0.0864243C15.8528 0.19581 15.8648 0.311247 15.8531 0.425491C15.8413 0.539736 15.8061 0.650321 15.7496 0.750306C15.6931 0.850291 15.6165 0.937518 15.5247 1.00651L10.5247 5.03151C10.3756 5.15408 10.1886 5.22109 9.99556 5.22109C9.80254 5.22109 9.6155 5.15408 9.46639 5.03151L4.46639 0.864846C4.36554 0.781248 4.28582 0.675054 4.2337 0.554879C4.18158 0.434704 4.15852 0.303934 4.16639 0.173179Z" fill="#100D22"/>
</g>
<defs>
<clipPath id="clip0_1_1616">
<rect width="20.9891" height="20" fill="white" transform="matrix(0 1 -1 0 20 0.197754)"/>
</clipPath>
</defs>
</svg>
