<svg width="105" height="25" viewBox="0 0 105 25" fill="none" xmlns="http://www.w3.org/2000/svg">
<circle cx="92.3103" cy="12.3103" r="12.3103" fill="#F6F6F6"/>
<path d="M96.0632 8.1541C94.967 7.05204 93.5073 6.44824 91.9539 6.44824C88.7532 6.44824 86.1446 9.05686 86.1446 12.2576C86.1446 13.2834 86.4142 14.28 86.9183 15.1593L86.0977 18.1724L89.1752 17.3634C90.0252 17.8265 90.9808 18.0727 91.9539 18.0727C95.1546 18.0727 97.7632 15.4641 97.7632 12.2634C97.7632 10.71 97.1594 9.25031 96.0632 8.1541ZM91.9539 17.0879C91.0863 17.0879 90.2363 16.8534 89.4918 16.4138L89.3159 16.3082L87.487 16.7889L87.9735 15.0069L87.8563 14.8251C87.3756 14.0572 87.1177 13.1662 87.1177 12.2576C87.1177 9.59617 89.2866 7.42721 91.948 7.42721C93.2377 7.42721 94.4511 7.93135 95.3597 8.84583C96.2742 9.76031 96.7725 10.9738 96.7725 12.2634C96.7842 14.9248 94.6152 17.0879 91.9539 17.0879ZM94.6035 13.4769C94.457 13.4065 93.7418 13.0548 93.6128 13.002C93.478 12.9551 93.3842 12.9317 93.2846 13.0724C93.1849 13.2189 92.9094 13.5472 92.8273 13.641C92.7452 13.7407 92.6573 13.7524 92.5108 13.6762C92.3642 13.6058 91.8952 13.4476 91.3442 12.9551C90.9104 12.5682 90.6232 12.0934 90.5352 11.9469C90.4532 11.8003 90.5235 11.7241 90.5997 11.6479C90.6642 11.5834 90.7463 11.4779 90.8166 11.3958C90.887 11.3138 90.9163 11.2493 90.9632 11.1555C91.0101 11.0558 90.9866 10.9738 90.9514 10.9034C90.9163 10.8331 90.6232 10.1179 90.5059 9.82479C90.3887 9.54341 90.2656 9.57859 90.1777 9.57272C90.0897 9.57272 89.9959 9.57272 89.8963 9.57272C89.7966 9.57272 89.6442 9.6079 89.5094 9.75445C89.3804 9.901 89.0052 10.2527 89.0052 10.9679C89.0052 11.6831 89.527 12.3748 89.5973 12.4686C89.6677 12.5682 90.6232 14.0338 92.077 14.661C92.4228 14.8134 92.6925 14.9013 92.9035 14.9658C93.2494 15.0772 93.5659 15.0596 93.818 15.0244C94.0994 14.9834 94.6797 14.6727 94.797 14.3327C94.9201 13.9927 94.9201 13.7055 94.879 13.641C94.838 13.5765 94.7501 13.5472 94.6035 13.4769Z" fill="#878690"/>
<circle cx="12.3103" cy="12.3103" r="12.3103" fill="#F6F6F6"/>
<g clip-path="url(#clip0_46_319)">
<path d="M13.1286 17.5842V12.7797H14.7495L14.9904 10.8986H13.1286V9.70035C13.1286 9.15752 13.2798 8.78587 14.0589 8.78587H15.0461V7.10873C14.5658 7.05725 14.083 7.0324 13.5999 7.03428C12.1672 7.03428 11.1836 7.9089 11.1836 9.51452V10.895H9.57324V12.7762H11.1871V17.5842H13.1286Z" fill="#878690"/>
</g>
<circle cx="51.3103" cy="12.3103" r="12.3103" fill="#F6F6F6"/>
<path fill-rule="evenodd" clip-rule="evenodd" d="M55.7031 7.92373C55.9689 8.18942 56.1762 8.50767 56.312 8.85811C56.4684 9.27388 56.5519 9.71355 56.5587 10.1577C56.5916 10.7187 56.5916 10.9004 56.5916 12.3324V12.3326C56.5916 13.7647 56.584 13.9435 56.5587 14.5074C56.55 14.9459 56.4673 15.3785 56.3131 15.7888C56.1772 16.1392 55.9698 16.4575 55.704 16.7232C55.4383 16.989 55.1201 17.1964 54.7696 17.3323C54.3594 17.486 53.9261 17.569 53.4882 17.5779C52.9284 17.6102 52.7449 17.6102 51.3134 17.6102C49.8818 17.6102 49.7031 17.6026 49.1385 17.5779C48.6997 17.5635 48.2665 17.4743 47.8577 17.3141C47.5072 17.1785 47.1888 16.9712 46.9229 16.7055C46.6571 16.4399 46.4495 16.1217 46.3136 15.7712C46.1594 15.3603 46.0768 14.9277 46.068 14.4892C46.0352 13.9282 46.0352 13.7459 46.0352 12.3144C46.0352 10.8823 46.0428 10.7035 46.068 10.1396C46.0766 9.70157 46.1596 9.26823 46.3136 8.85811C46.4492 8.50757 46.6565 8.18924 46.9223 7.92354C47.1881 7.65784 47.5065 7.45063 47.8571 7.31522C48.2667 7.16081 48.6997 7.07754 49.1374 7.06901C49.6972 7.03735 49.8807 7.03735 51.3122 7.03735C52.7437 7.03735 52.9225 7.04439 53.487 7.06901C53.925 7.078 54.3583 7.16125 54.7685 7.31522C55.119 7.45079 55.4373 7.65805 55.7031 7.92373ZM55.4156 15.4354C55.5325 15.1184 55.5942 14.7837 55.598 14.4458V14.4464H55.6044C55.6296 13.886 55.6296 13.7324 55.6296 12.3044C55.6296 10.8758 55.6232 10.7193 55.598 10.1618C55.5925 9.82779 55.5309 9.49705 55.4156 9.18346C55.3275 8.95546 55.1928 8.74841 55.0199 8.57558C54.8471 8.40275 54.64 8.26796 54.4121 8.17987C54.0986 8.06326 53.7675 8.00158 53.4331 7.99756C52.8662 7.96532 52.7197 7.96532 51.2911 7.96532C49.8625 7.96532 49.706 7.97235 49.1485 7.99756C48.8144 8.00223 48.4835 8.06388 48.1701 8.17987C47.7076 8.35691 47.3412 8.72094 47.1624 9.18346C47.0456 9.50025 46.9839 9.83475 46.9801 10.1724C46.9491 10.7404 46.9491 10.8864 46.9491 12.315C46.9491 13.743 46.9549 13.9001 46.9801 14.457C46.9856 14.791 47.0472 15.1218 47.1624 15.4354C47.2509 15.6637 47.3862 15.871 47.5598 16.0438C47.7334 16.2166 47.9413 16.351 48.1701 16.4384C48.4833 16.5549 48.8143 16.6166 49.1485 16.6207C49.716 16.6529 49.8619 16.6529 51.2911 16.6529C52.7191 16.6529 52.8762 16.6465 53.4331 16.6207C53.7674 16.6163 54.0986 16.5547 54.4121 16.4384C54.6401 16.3505 54.8472 16.2158 55.02 16.0431C55.1928 15.8703 55.3276 15.6633 55.4156 15.4354ZM54.127 10.1328C54.4761 10.1328 54.759 9.84983 54.759 9.50083C54.759 9.15182 54.4761 8.8689 54.127 8.8689C53.778 8.8689 53.4951 9.15182 53.4951 9.50083C53.4951 9.84983 53.778 10.1328 54.127 10.1328ZM51.3093 9.60029C50.5904 9.60029 49.9009 9.88587 49.3926 10.3942C48.8842 10.9026 48.5987 11.592 48.5987 12.3109C48.5987 13.0298 48.8842 13.7193 49.3926 14.2276C49.9009 14.736 50.5904 15.0215 51.3093 15.0215C52.0282 15.0215 52.7176 14.736 53.226 14.2276C53.7343 13.7193 54.0199 13.0298 54.0199 12.3109C54.0199 11.592 53.7343 10.9026 53.226 10.3942C52.7176 9.88587 52.0282 9.60029 51.3093 9.60029ZM51.3093 14.0713C50.8422 14.0713 50.3943 13.8858 50.0641 13.5555C49.7339 13.2253 49.5483 12.7774 49.5483 12.3103C49.5483 11.8433 49.7339 11.3954 50.0641 11.0651C50.3943 10.7349 50.8422 10.5494 51.3093 10.5494C51.7763 10.5494 52.2242 10.7349 52.5545 11.0651C52.8847 11.3954 53.0703 11.8433 53.0703 12.3103C53.0703 12.7774 52.8847 13.2253 52.5545 13.5555C52.2242 13.8858 51.7763 14.0713 51.3093 14.0713Z" fill="#878690"/>
<defs>
<clipPath id="clip0_46_319">
<rect width="14.069" height="14.069" fill="white" transform="translate(9.27539 5.27588)"/>
</clipPath>
</defs>
</svg>
