<svg width="59" height="58" viewBox="0 0 59 58" fill="none" xmlns="http://www.w3.org/2000/svg">
<circle cx="29.1035" cy="29" r="29" fill="url(#paint0_linear_166_2012)"/>
<g clip-path="url(#clip0_166_2012)">
<path d="M39.3135 32.7815C36.5333 32.7815 34.2715 35.0433 34.2715 37.8235C34.2715 40.6038 36.5333 42.8656 39.3135 42.8656C42.0942 42.8656 44.3555 40.6038 44.3555 37.8235C44.3555 35.0433 42.0938 32.7815 39.3135 32.7815ZM39.3135 40.3445C37.9232 40.3445 36.7925 39.2138 36.7925 37.8235C36.7925 36.4332 37.9232 35.3025 39.3135 35.3025C40.7038 35.3025 41.8345 36.4332 41.8345 37.8235C41.8345 39.2139 40.7038 40.3445 39.3135 40.3445Z" fill="white"/>
<path d="M22.087 32.7815C19.3067 32.7815 17.0449 35.0433 17.0449 37.8235C17.0449 40.6038 19.3067 42.8656 22.087 42.8656C24.8672 42.8656 27.129 40.6038 27.129 37.8235C27.129 35.0433 24.8672 32.7815 22.087 32.7815ZM22.087 40.3445C20.6966 40.3445 19.5659 39.2138 19.5659 37.8235C19.5659 36.4332 20.6966 35.3025 22.087 35.3025C23.4769 35.3025 24.608 36.4332 24.608 37.8235C24.608 39.2139 23.4773 40.3445 22.087 40.3445Z" fill="white"/>
<path d="M42.7085 18.3497C42.4942 17.924 42.0585 17.6555 41.582 17.6555H34.9434V20.1765H40.8047L44.237 27.0034L46.49 25.8706L42.7085 18.3497Z" fill="white"/>
<path d="M35.532 36.605H25.9941V39.126H35.532V36.605Z" fill="white"/>
<path d="M18.305 36.605H13.9353C13.239 36.605 12.6748 37.1693 12.6748 37.8654C12.6748 38.5617 13.2391 39.1259 13.9353 39.1259H18.305C19.0013 39.1259 19.5655 38.5616 19.5655 37.8654C19.5655 37.1692 19.0012 36.605 18.305 36.605Z" fill="white"/>
<path d="M48.8386 28.8992L46.3593 25.7059C46.1211 25.3984 45.7534 25.2185 45.3639 25.2185H36.2042V16.395C36.2042 15.6987 35.6399 15.1345 34.9437 15.1345H13.9353C13.239 15.1345 12.6748 15.6988 12.6748 16.395C12.6748 17.0912 13.2391 17.6555 13.9353 17.6555H33.6832V26.479C33.6832 27.1752 34.2475 27.7394 34.9436 27.7394H44.7466L46.5823 30.1041V36.605H43.0949C42.3986 36.605 41.8344 37.1693 41.8344 37.8655C41.8344 38.5617 42.3987 39.1259 43.0949 39.1259H47.8428C48.539 39.1259 49.1032 38.5616 49.1033 37.8655V29.6723C49.1033 29.3925 49.01 29.1202 48.8386 28.8992Z" fill="white"/>
<path d="M18.2209 30.2185H12.4226C11.7263 30.2185 11.1621 30.7828 11.1621 31.479C11.1621 32.1752 11.7264 32.7394 12.4226 32.7394H18.2209C18.9171 32.7394 19.4813 32.1751 19.4813 31.479C19.4814 30.7828 18.9171 30.2185 18.2209 30.2185Z" fill="white"/>
<path d="M21.1203 25.2605H10.364C9.66781 25.2605 9.10352 25.8248 9.10352 26.521C9.10352 27.2173 9.66781 27.7815 10.364 27.7815H21.1203C21.8166 27.7815 22.3808 27.2172 22.3808 26.521C22.3808 25.8249 21.8166 25.2605 21.1203 25.2605Z" fill="white"/>
<path d="M23.1789 20.3025H12.4226C11.7263 20.3025 11.1621 20.8668 11.1621 21.563C11.1621 22.2592 11.7264 22.8234 12.4226 22.8234H23.1789C23.8752 22.8234 24.4394 22.2591 24.4394 21.563C24.4395 20.8668 23.8752 20.3025 23.1789 20.3025Z" fill="white"/>
</g>
<defs>
<linearGradient id="paint0_linear_166_2012" x1="1.34637" y1="-9.92237e-07" x2="51.3651" y2="64.1899" gradientUnits="userSpaceOnUse">
<stop stop-color="#AB238F"/>
<stop offset="0.334671" stop-color="#DF3295"/>
<stop offset="0.704363" stop-color="#FE9D9B"/>
<stop offset="1" stop-color="#FF7770"/>
</linearGradient>
<clipPath id="clip0_166_2012">
<rect width="40" height="40" fill="white" transform="translate(9.10352 9)"/>
</clipPath>
</defs>
</svg>
