<svg width="58" height="58" viewBox="0 0 58 58" fill="none" xmlns="http://www.w3.org/2000/svg">
<path d="M58 29C58 45.0163 45.0163 58 29 58C12.9837 58 0 45.0163 0 29C0 12.9837 12.9837 0 29 0C45.0163 0 58 12.9837 58 29Z" fill="url(#paint0_linear_223_21)"/>
<path d="M22.6609 32.0542L21.6541 33.0314C21.5119 33.1695 21.4318 33.3592 21.4318 33.5573V33.9743C21.4318 34.379 21.76 34.7073 22.1649 34.7073H28.1767C28.5821 34.7073 28.9101 34.379 28.9101 33.9743V33.4345C28.9101 33.0298 28.5821 32.7014 28.1767 32.7014H24.855L24.9465 32.6172C27.1175 30.5256 28.6541 28.8793 28.6541 26.7357C28.6541 25.0218 27.5403 23.2925 25.0509 23.2925C23.9642 23.2925 22.9 23.6413 22.054 24.2742C21.7793 24.4803 21.6839 24.8496 21.8253 25.1629L22.0103 25.5718C22.1 25.7706 22.2733 25.9192 22.484 25.977C22.6934 26.0348 22.9194 25.9958 23.0981 25.871C23.6421 25.4911 24.202 25.2983 24.763 25.2983C25.8548 25.2983 26.4082 25.8412 26.4082 26.9043C26.3936 28.345 25.1986 29.6383 22.6609 32.0542Z" fill="white"/>
<path d="M33.6185 23.4711C33.599 23.4693 33.5792 23.4685 33.5596 23.4685H33.3358C33.0961 23.4685 32.8718 23.5856 32.7349 23.7817L28.245 30.207C28.159 30.3302 28.113 30.4768 28.113 30.627V31.142C28.113 31.5469 28.441 31.8751 28.8458 31.8751H32.9453V33.9743C32.9453 34.379 33.2733 34.7073 33.6781 34.7073H34.3781C34.7827 34.7073 35.1113 34.379 35.1113 33.9743V31.8751H35.834C36.2388 31.8751 36.5672 31.5469 36.5672 31.142V30.666C36.5672 30.2614 36.2388 29.9331 35.834 29.9331H35.1113V24.2016C35.1113 23.797 34.7827 23.4687 34.3781 23.4687H33.6781C33.6581 23.4687 33.638 23.4694 33.6185 23.4711ZM32.9453 29.9331H30.7317C31.294 29.1165 32.2556 27.7151 32.9453 26.6794V29.9331Z" fill="white"/>
<path d="M29.0271 45.8292C20.3996 45.8292 13.3804 38.81 13.3804 30.1825C13.3804 22.013 19.6745 15.2869 27.6677 14.5955V17.0896C27.6677 17.2668 27.7655 17.4297 27.9217 17.5129C27.9925 17.5507 28.07 17.5692 28.1472 17.5692C28.2407 17.5692 28.3342 17.5418 28.4146 17.4876L34.0779 13.6826C34.2106 13.5936 34.2901 13.4443 34.2901 13.2845C34.2901 13.1248 34.2106 12.9754 34.0779 12.8864L28.4146 9.08142C28.2676 8.98262 28.078 8.97273 27.9216 9.05631C27.7653 9.13964 27.6676 9.30249 27.6676 9.47955V11.4142C17.9239 12.1133 10.2095 20.2635 10.2095 30.1824C10.2095 40.5584 18.6512 48.9999 29.0269 48.9999C33.8308 48.9999 38.4042 47.1899 41.9045 43.9034L39.7343 41.5917C36.824 44.3243 33.0215 45.8292 29.0271 45.8292Z" fill="white"/>
<path d="M45.0898 20.3755C44.4416 19.3153 43.6835 18.3142 42.8374 17.4005L40.5108 19.5547C41.215 20.3151 41.8454 21.148 42.3849 22.0299L45.0898 20.3755Z" fill="white"/>
<path d="M44.531 28.0576L47.6731 27.631C47.5054 26.3957 47.2133 25.1739 46.8048 23.9996L43.81 25.041C44.1491 26.0162 44.3916 27.0311 44.531 28.0576Z" fill="white"/>
<path d="M39.8197 14.7657C38.7993 14.0499 37.7043 13.4344 36.5651 12.9358L35.294 15.8407C36.2407 16.2551 37.1508 16.7667 37.999 17.3615L39.8197 14.7657Z" fill="white"/>
<path d="M41.1145 40.1187L43.5627 42.1336C44.3547 41.1714 45.053 40.1275 45.6381 39.0311L42.8408 37.5381C42.3543 38.4498 41.7735 39.3181 41.1145 40.1187Z" fill="white"/>
<path d="M44.6277 31.3925C44.5488 32.4271 44.3663 33.4553 44.0858 34.4483L47.137 35.311C47.4751 34.1155 47.6945 32.8783 47.7897 31.6341L44.6277 31.3925Z" fill="white"/>
<defs>
<linearGradient id="paint0_linear_223_21" x1="1.24286" y1="-9.92237e-07" x2="51.2616" y2="64.1899" gradientUnits="userSpaceOnUse">
<stop stop-color="#AB238F"/>
<stop offset="0.334671" stop-color="#DF3295"/>
<stop offset="0.704363" stop-color="#FE9D9B"/>
<stop offset="1" stop-color="#FF7770"/>
</linearGradient>
</defs>
</svg>
