<svg width="59" height="58" viewBox="0 0 59 58" fill="none" xmlns="http://www.w3.org/2000/svg">
<circle cx="29.9033" cy="29" r="29" fill="url(#paint0_linear_166_2046)"/>
<g clip-path="url(#clip0_166_2046)">
<path d="M44.9172 15.477L29.9875 9.11944C29.6135 8.96022 29.1931 8.96015 28.8192 9.11944L13.8895 15.477C13.3208 15.7192 12.9502 16.2886 12.9502 16.9201V24.6486C12.9502 35.2902 19.2213 44.8627 28.8276 48.8841C29.1966 49.0386 29.61 49.0386 29.979 48.8841C39.5851 44.8627 45.8564 35.2903 45.8564 24.6486V16.9201C45.8564 16.2886 45.4859 15.7192 44.9172 15.477ZM42.8096 24.6486C42.8096 33.6951 37.6299 42.023 29.4033 45.7403C21.3966 42.1223 15.9971 33.9402 15.9971 24.6486V17.9632L29.4033 12.2543L42.8096 17.9632V24.6486ZM27.7195 29.9153L34.2675 23.1994C34.8624 22.5893 35.827 22.5892 36.4219 23.1994C37.0169 23.8097 37.0169 24.799 36.4219 25.4091L28.7967 33.2298C28.2016 33.8401 27.2371 33.8399 26.6422 33.2298L22.3847 28.8631C21.7897 28.2529 21.7897 27.2636 22.3847 26.6534C22.9797 26.0433 23.9442 26.0432 24.5391 26.6534L27.7195 29.9153Z" fill="white"/>
</g>
<defs>
<linearGradient id="paint0_linear_166_2046" x1="2.14618" y1="-9.92237e-07" x2="52.1649" y2="64.1899" gradientUnits="userSpaceOnUse">
<stop stop-color="#AB238F"/>
<stop offset="0.334671" stop-color="#DF3295"/>
<stop offset="0.704363" stop-color="#FE9D9B"/>
<stop offset="1" stop-color="#FF7770"/>
</linearGradient>
<clipPath id="clip0_166_2046">
<rect width="39" height="40" fill="white" transform="translate(9.90332 9)"/>
</clipPath>
</defs>
</svg>
