<svg width="20" height="20" viewBox="0 0 20 20" fill="none" xmlns="http://www.w3.org/2000/svg">
<path d="M10.0008 11.1376C9.13351 11.1386 8.29265 10.839 7.62143 10.2897C6.95022 9.7404 6.49015 8.97544 6.31958 8.12506C6.30598 8.03549 6.31202 7.94403 6.33728 7.85702C6.36254 7.77001 6.40642 7.68953 6.46587 7.62116C6.52532 7.55279 6.59893 7.49817 6.68159 7.46107C6.76424 7.42397 6.85398 7.40529 6.94458 7.40632C7.09347 7.40415 7.23825 7.45522 7.35283 7.55032C7.46742 7.64543 7.54428 7.77832 7.56958 7.92507C7.68728 8.48689 7.99475 8.99109 8.44032 9.35299C8.88589 9.71488 9.44243 9.91242 10.0165 9.91242C10.5905 9.91242 11.147 9.71488 11.5926 9.35299C12.0382 8.99109 12.3456 8.48689 12.4633 7.92507C12.4886 7.77832 12.5655 7.64543 12.6801 7.55032C12.7947 7.45522 12.9394 7.40415 13.0883 7.40632C13.1789 7.40529 13.2687 7.42397 13.3513 7.46107C13.434 7.49817 13.5076 7.55279 13.567 7.62116C13.6265 7.68953 13.6704 7.77001 13.6956 7.85702C13.7209 7.94403 13.7269 8.03549 13.7133 8.12506C13.5417 8.98073 13.0771 9.74976 12.3994 10.2997C11.7217 10.8495 10.8735 11.1459 10.0008 11.1376V11.1376Z" fill="#100D22"/>
<path d="M15.5629 19.3749H4.43789C4.18357 19.3752 3.93185 19.3238 3.69803 19.2238C3.46421 19.1237 3.25318 18.9772 3.07779 18.793C2.9024 18.6089 2.7663 18.3909 2.67778 18.1525C2.58927 17.9141 2.55018 17.6602 2.56289 17.4062L3.06914 6.63115C3.09009 6.14809 3.29685 5.69179 3.64624 5.35755C3.99562 5.0233 4.46062 4.83695 4.94414 4.8374H15.0566C15.5402 4.83695 16.0052 5.0233 16.3546 5.35755C16.7039 5.69179 16.9107 6.14809 16.9316 6.63115L17.4379 17.4062C17.4506 17.6602 17.4115 17.9141 17.323 18.1525C17.2345 18.3909 17.0984 18.6089 16.923 18.793C16.7476 18.9772 16.5366 19.1237 16.3028 19.2238C16.0689 19.3238 15.8172 19.3752 15.5629 19.3749V19.3749ZM4.94414 6.09365C4.77838 6.09365 4.61941 6.1595 4.5022 6.27671C4.38499 6.39392 4.31914 6.55289 4.31914 6.71865L3.81289 17.4687C3.80865 17.5533 3.82168 17.638 3.85119 17.7174C3.8807 17.7969 3.92606 17.8696 3.98453 17.9309C4.04299 17.9923 4.11333 18.0412 4.19127 18.0745C4.26921 18.1079 4.35312 18.125 4.43789 18.1249H15.5629C15.6477 18.125 15.7316 18.1079 15.8095 18.0745C15.8875 18.0412 15.9578 17.9923 16.0163 17.9309C16.0747 17.8696 16.1201 17.7969 16.1496 17.7174C16.1791 17.638 16.1921 17.5533 16.1879 17.4687L15.6816 6.69365C15.6816 6.52789 15.6158 6.36892 15.4986 6.25171C15.3814 6.1345 15.2224 6.06865 15.0566 6.06865L4.94414 6.09365Z" fill="#100D22"/>
<path d="M13.75 5.46875H12.5V4.375C12.5 3.71196 12.2366 3.07607 11.7678 2.60723C11.2989 2.13839 10.663 1.875 10 1.875C9.33696 1.875 8.70107 2.13839 8.23223 2.60723C7.76339 3.07607 7.5 3.71196 7.5 4.375V5.46875H6.25V4.375C6.25 3.38044 6.64509 2.42661 7.34835 1.72335C8.05161 1.02009 9.00544 0.625 10 0.625C10.9946 0.625 11.9484 1.02009 12.6517 1.72335C13.3549 2.42661 13.75 3.38044 13.75 4.375V5.46875Z" fill="#100D22"/>
</svg>
