<svg width="168" height="168" viewBox="0 0 168 168" fill="none" xmlns="http://www.w3.org/2000/svg">
<g id="shopping-bag" clip-path="url(#clip0_1_1998)">
<g id="Group">
<g id="Group_2">
<path id="Vector" d="M146.219 164.324L139.695 59.9385C139.628 58.8692 139.041 57.9007 138.123 57.3478L133.074 54.3053V34.0453C133.074 32.2436 131.613 30.7832 129.812 30.7832H38.6809C36.8793 30.7832 35.4189 32.2436 35.4189 34.0453V55.1671L31.9826 57.4101C31.1358 57.9627 30.5933 58.8771 30.5137 59.885L22.2767 164.271C22.2053 165.178 22.5155 166.074 23.133 166.742C23.7505 167.41 24.6189 167.79 25.5286 167.79H142.963C143.864 167.79 144.724 167.418 145.341 166.761C145.957 166.105 146.275 165.223 146.219 164.324ZM126.549 50.3742L119.841 46.3321L126.549 40.8914V50.3742ZM124.705 56.8797H117.437V52.5007L124.705 56.8797ZM120.611 37.3073L112.121 44.1932C111.357 44.8127 110.913 45.7433 110.913 46.7269V56.8797H57.5787V46.7269C57.5787 45.7437 57.1351 44.8127 56.3714 44.1932L47.8813 37.3073H120.611ZM51.0546 56.8797H44.7308L51.0546 52.7519V56.8797ZM41.943 40.8914L48.7862 46.4418L41.943 50.9088V40.8914ZM29.0582 161.266L29.5733 154.741H45.7577C47.5593 154.741 49.0197 153.281 49.0197 151.479C49.0197 149.678 47.5593 148.217 45.7577 148.217H30.088L36.7805 63.4038H133.375L139.491 161.266H29.0582Z" fill="#878690"/>
<path id="Vector_2" d="M84.2464 14.7988C86.0481 14.7988 87.5085 13.3384 87.5085 11.5368V4.03403C87.5085 2.2324 86.0477 0.771973 84.2464 0.771973C82.4451 0.771973 80.9844 2.2324 80.9844 4.03403V11.5368C80.9844 13.3384 82.4448 14.7988 84.2464 14.7988Z" fill="#878690"/>
<path id="Vector_3" d="M64.3336 17.7465C64.9377 18.7929 66.0341 19.3782 67.1615 19.3782C67.7147 19.3782 68.2758 19.2369 68.7896 18.9404C70.3498 18.0397 70.8845 16.0447 69.9835 14.4844L66.2321 7.98704C65.3315 6.42647 63.3361 5.89182 61.7761 6.79313C60.2159 7.69378 59.6812 9.68886 60.5822 11.2491L64.3336 17.7465Z" fill="#878690"/>
<path id="Vector_4" d="M99.7018 18.9402C100.216 19.2371 100.776 19.378 101.33 19.378C102.457 19.378 103.554 18.7928 104.158 17.7463L107.909 11.2489C108.81 9.68869 108.275 7.69361 106.715 6.79296C105.155 5.89132 103.16 6.42663 102.259 7.98687L98.5079 14.4842C97.6072 16.0442 98.1415 18.0396 99.7018 18.9402Z" fill="#878690"/>
<path id="Vector_5" d="M114.461 73.1904H101.413C99.6114 73.1904 98.1506 74.6509 98.1506 76.4525C98.1506 78.2541 99.6114 79.7146 101.413 79.7146H104.675V99.2869C104.675 110.079 95.8946 118.859 85.1021 118.859C74.3099 118.859 65.5297 110.079 65.5297 99.2869V79.7146H68.7918C70.5934 79.7146 72.0538 78.2541 72.0538 76.4525C72.0538 74.6509 70.5934 73.1904 68.7918 73.1904H55.7435C53.9419 73.1904 52.4814 74.6509 52.4814 76.4525C52.4814 78.2541 53.9419 79.7146 55.7435 79.7146H59.0056V99.2869C59.0056 113.677 70.7125 125.383 85.1021 125.383C99.4917 125.383 111.199 113.677 111.199 99.2869V79.7146H114.461C116.262 79.7146 117.723 78.2541 117.723 76.4525C117.723 74.6509 116.262 73.1904 114.461 73.1904Z" fill="#878690"/>
<path id="Vector_6" d="M60.4359 148.217C58.6343 148.217 57.1738 149.677 57.1738 151.479C57.1738 153.28 58.6343 154.741 60.4359 154.741H60.4382C62.2398 154.741 63.6993 153.28 63.6993 151.479C63.6993 149.677 62.2375 148.217 60.4359 148.217Z" fill="#878690"/>
</g>
</g>
</g>
<defs>
<clipPath id="clip0_1_1998">
<rect width="167.018" height="167.018" fill="white" transform="translate(0.737305 0.771973)"/>
</clipPath>
</defs>
</svg>
